<svg width="140" height="32" viewBox="0 0 140 32" fill="none" xmlns="http://www.w3.org/2000/svg">
<path fill-rule="evenodd" clip-rule="evenodd" d="M16 32C24.8366 32 32 24.8366 32 16C32 7.16345 24.8366 0 16 0C7.16343 0 0 7.16345 0 16C0 24.8366 7.16343 32 16 32ZM20.9915 7.45348C21.2344 6.59044 20.3969 6.08011 19.632 6.62504L8.9545 14.2317C8.12498 14.8226 8.25546 16 9.1505 16H11.9622V15.9782H17.442L12.977 17.5537L11.0086 24.5466C10.7656 25.4096 11.6031 25.9199 12.368 25.375L23.0455 17.7684C23.8751 17.1774 23.7445 16 22.8496 16H18.5857L20.9915 7.45348Z" fill="#F15757"/>
<path d="M52.008 25.364C50.76 25.364 49.6247 25.0867 48.602 24.532C47.5967 23.96 46.7907 23.1367 46.184 22.062C45.5947 20.97 45.3 19.644 45.3 18.084V13.716C45.3 11.376 45.9587 9.582 47.276 8.334C48.5933 7.06867 50.3787 6.436 52.632 6.436C54.868 6.436 56.5927 7.034 57.806 8.23C59.0367 9.40867 59.652 11.012 59.652 13.04V13.144H56.272V12.936C56.272 12.2947 56.1333 11.714 55.856 11.194C55.596 10.674 55.1973 10.2667 54.66 9.972C54.1227 9.66 53.4467 9.504 52.632 9.504C51.4187 9.504 50.4653 9.87667 49.772 10.622C49.0787 11.3673 48.732 12.3813 48.732 13.664V18.136C48.732 19.4013 49.0787 20.424 49.772 21.204C50.4653 21.9667 51.436 22.348 52.684 22.348C53.932 22.348 54.842 22.0187 55.414 21.36C55.986 20.7013 56.272 19.8693 56.272 18.864V18.604H51.956V15.692H59.652V25H56.48V23.258H56.012C55.8907 23.5527 55.6913 23.8647 55.414 24.194C55.154 24.5233 54.7553 24.8007 54.218 25.026C53.6807 25.2513 52.944 25.364 52.008 25.364ZM64.4388 30.2V27.34H71.4588C71.9442 27.34 72.1868 27.08 72.1868 26.56V23.31H71.7188C71.5802 23.6047 71.3635 23.8993 71.0688 24.194C70.7742 24.4887 70.3755 24.7313 69.8728 24.922C69.3702 25.1127 68.7288 25.208 67.9488 25.208C66.9435 25.208 66.0595 24.9827 65.2968 24.532C64.5515 24.064 63.9708 23.4227 63.5548 22.608C63.1388 21.7933 62.9308 20.8573 62.9308 19.8V12.104H66.2068V19.54C66.2068 20.5107 66.4408 21.2387 66.9088 21.724C67.3942 22.2093 68.0788 22.452 68.9628 22.452C69.9682 22.452 70.7482 22.1227 71.3028 21.464C71.8575 20.788 72.1348 19.852 72.1348 18.656V12.104H75.4108V27.288C75.4108 28.172 75.1508 28.874 74.6308 29.394C74.1108 29.9313 73.4175 30.2 72.5508 30.2H64.4388ZM79.0563 25V12.104H82.2803V13.508H82.7483C82.9737 13.0747 83.3463 12.702 83.8663 12.39C84.3863 12.0607 85.071 11.896 85.9203 11.896C86.839 11.896 87.5757 12.078 88.1303 12.442C88.685 12.7887 89.1097 13.248 89.4043 13.82H89.8723C90.167 13.2653 90.583 12.806 91.1203 12.442C91.6577 12.078 92.4203 11.896 93.4083 11.896C94.2057 11.896 94.925 12.0693 95.5663 12.416C96.225 12.7453 96.745 13.2567 97.1263 13.95C97.525 14.626 97.7243 15.484 97.7243 16.524V25H94.4483V16.758C94.4483 16.0473 94.2663 15.5187 93.9023 15.172C93.5383 14.808 93.027 14.626 92.3683 14.626C91.623 14.626 91.0423 14.8687 90.6263 15.354C90.2277 15.822 90.0283 16.498 90.0283 17.382V25H86.7523V16.758C86.7523 16.0473 86.5703 15.5187 86.2063 15.172C85.8423 14.808 85.331 14.626 84.6723 14.626C83.927 14.626 83.3463 14.8687 82.9303 15.354C82.5317 15.822 82.3323 16.498 82.3323 17.382V25H79.0563ZM101.248 25V6.8H104.524V25H101.248ZM108.154 25V12.104H111.43V25H108.154ZM109.792 10.596C109.203 10.596 108.7 10.4053 108.284 10.024C107.885 9.64267 107.686 9.14 107.686 8.516C107.686 7.892 107.885 7.38933 108.284 7.008C108.7 6.62667 109.203 6.436 109.792 6.436C110.399 6.436 110.901 6.62667 111.3 7.008C111.699 7.38933 111.898 7.892 111.898 8.516C111.898 9.14 111.699 9.64267 111.3 10.024C110.901 10.4053 110.399 10.596 109.792 10.596ZM117.192 25V14.808H113.916V12.104H117.192V9.712C117.192 8.828 117.452 8.126 117.972 7.606C118.51 7.06867 119.203 6.8 120.052 6.8H123.432V9.504H121.196C120.711 9.504 120.468 9.764 120.468 10.284V12.104H123.848V14.808H120.468V25H117.192ZM131.829 25.364C130.546 25.364 129.411 25.0953 128.423 24.558C127.452 24.0033 126.689 23.232 126.135 22.244C125.597 21.2387 125.329 20.06 125.329 18.708V18.396C125.329 17.044 125.597 15.874 126.135 14.886C126.672 13.8807 127.426 13.1093 128.397 12.572C129.367 12.0173 130.494 11.74 131.777 11.74C133.042 11.74 134.143 12.026 135.079 12.598C136.015 13.1527 136.743 13.9327 137.263 14.938C137.783 15.926 138.043 17.0787 138.043 18.396V19.514H128.657C128.691 20.398 129.021 21.1173 129.645 21.672C130.269 22.2267 131.031 22.504 131.933 22.504C132.851 22.504 133.527 22.3047 133.961 21.906C134.394 21.5073 134.723 21.0653 134.949 20.58L137.627 21.984C137.384 22.4347 137.029 22.9287 136.561 23.466C136.11 23.986 135.503 24.4367 134.741 24.818C133.978 25.182 133.007 25.364 131.829 25.364ZM128.683 17.07H134.715C134.645 16.3247 134.342 15.7267 133.805 15.276C133.285 14.8253 132.6 14.6 131.751 14.6C130.867 14.6 130.165 14.8253 129.645 15.276C129.125 15.7267 128.804 16.3247 128.683 17.07Z" fill="#F2F2F2"/>
</svg>
